<svg width="14" height="14" viewBox="0 0 14 14" fill="none" xmlns="http://www.w3.org/2000/svg">
<path d="M8.04754 12.7314L7.35387 13.4251C7.06015 13.7188 6.5852 13.7188 6.29461 13.4251L0.220288 7.35387C-0.0734293 7.06015 -0.0734293 6.5852 0.220288 6.29461L6.29461 0.220288C6.58833 -0.0734293 7.06327 -0.0734293 7.35387 0.220288L8.04754 0.913961C8.34438 1.2108 8.33813 1.69512 8.03504 1.98572L4.26984 5.57282H13.2501C13.6657 5.57282 14 5.90715 14 6.32273V7.32262C14 7.7382 13.6657 8.07254 13.2501 8.07254H4.26984L8.03504 11.6596C8.34126 11.9502 8.34751 12.4346 8.04754 12.7314Z" fill="white"/>
</svg>
